<svg width="212" height="196" viewBox="0 0 212 196" fill="none" xmlns="http://www.w3.org/2000/svg">
<path d="M73.721 187.375C73.722 186.182 73.9846 185.004 74.4905 183.923L114.862 98L74.4913 12.0765C73.7803 10.4441 73.6207 8.62451 74.0368 6.89332C74.4528 5.16213 75.4217 3.61372 76.7968 2.48268C78.1719 1.35164 79.8782 0.699614 81.6571 0.625395C83.436 0.551175 85.1907 1.0588 86.6552 2.07137L208.522 91.4464C209.5 92.2363 210.288 93.2348 210.83 94.3688C211.371 95.5028 211.652 96.7437 211.652 98.0004C211.652 99.2571 211.371 100.498 210.83 101.632C210.288 102.766 209.5 103.765 208.522 104.554L86.6552 193.929C85.4377 194.791 84.008 195.305 82.5202 195.415C81.0324 195.524 79.543 195.226 78.2123 194.551C76.8816 193.877 75.7601 192.852 74.9686 191.588C74.1772 190.323 73.7458 188.867 73.721 187.375ZM131.961 98C131.963 99.1933 131.701 100.372 131.192 101.452L102.77 161.945L189.971 98L102.77 34.0562L131.191 94.5493C131.7 95.6283 131.963 96.8069 131.961 98ZM0.152404 8.62499C0.184692 6.48017 1.05109 4.43225 2.56787 2.91546C4.08466 1.39867 6.13258 0.532282 8.2774 0.499992L50.4332 0.499994C52.0174 0.499281 53.5672 0.96248 54.8912 1.83241C56.2153 2.70235 57.2556 3.94094 57.8838 5.39531L96.9804 95.5479C97.431 96.5737 97.6624 97.6824 97.6596 98.8028C97.6568 99.9233 97.4199 101.031 96.9642 102.054L57.8708 190.652C57.236 192.094 56.195 193.321 54.8748 194.182C53.5547 195.043 52.0125 195.501 50.4364 195.5L8.27982 195.5C6.93337 195.48 5.61253 195.129 4.43374 194.478C3.25495 193.827 2.25448 192.896 1.52056 191.767C0.786643 190.638 0.34185 189.346 0.225395 188.004C0.10894 186.663 0.324394 185.313 0.852775 184.075L38.4943 99.4934L0.810531 11.8303C0.377807 10.817 0.153961 9.72682 0.152404 8.62499ZM45.1015 16.75L20.6152 16.75L54.8288 96.3417C55.2661 97.3716 55.4881 98.4801 55.4813 99.599C55.4744 100.718 55.2388 101.824 54.789 102.848L20.7899 179.25L45.143 179.25L80.6582 98.7459L45.1015 16.75Z" fill="url(#paint0_linear_33_20075)"/>
<defs>
<linearGradient id="paint0_linear_33_20075" x1="211.652" y1="98" x2="0.152401" y2="98" gradientUnits="userSpaceOnUse">
<stop stop-color="#383D93"/>
<stop offset="1" stop-color="#25296D" stop-opacity="0"/>
</linearGradient>
</defs>
</svg>
