<svg width="166" height="303" viewBox="0 0 166 303" fill="none" xmlns="http://www.w3.org/2000/svg">
<path d="M3.28824 271.712L7 268L89.5 0L166 42.5L45.1892 282.636C44.4201 284.165 44.2028 285.913 44.574 287.583C44.8532 288.839 44.801 290.147 44.4225 291.377L44.0172 292.694C43.3513 294.858 42.116 296.804 40.4405 298.327L40.052 298.68C38.3768 300.203 36.3505 301.287 34.1541 301.836C32.402 302.275 30.5806 302.362 28.7945 302.094L25.734 301.635C22.9263 301.214 20.195 300.386 17.6261 299.177L16.3807 298.591C14.1321 297.533 11.991 296.26 9.98701 294.79L9.49111 294.427C6.83838 292.481 4.55895 290.089 2.09661 287.908C1.81055 287.655 1.59632 287.5 1.5 287.5C1.20632 287.5 0.714998 285.703 0.342633 284.088C0.0997628 283.035 0 281.956 0 280.875V279.65C0 277.907 0.405793 276.188 1.18524 274.63C1.72488 273.55 2.43499 272.565 3.28824 271.712Z" fill="url(#paint0_linear_2495_20358)"/>
<linearGradient id="paint0_linear_2495_20358" x1="114.5" y1="42" x2="21.9998" y2="280.5" gradientUnits="userSpaceOnUse">
<stop stop-color="#090D31"/>
<stop offset="0.197115" stop-color="#090D31" stop-opacity="0.3"/>
<stop offset="1" stop-opacity="0.52"/>
</linearGradient>
</svg>
