<svg width="220" height="162" viewBox="0 0 220 162" fill="none" xmlns="http://www.w3.org/2000/svg">
<path d="M0.346063 120.577L0.421362 120.376C1.08455 118.608 2.67407 117.353 4.54824 117.119C5.17719 117.04 5.78588 116.845 6.34288 116.542L220 0.5V90L20.3904 156.371C19.1862 156.772 18.2063 157.661 17.6909 158.82L17.0364 160.293C16.7102 161.027 15.9824 161.5 15.1793 161.5C14.4501 161.5 13.7767 161.109 13.4149 160.476L12.2814 158.492C12.0942 158.165 11.8764 157.856 11.6309 157.569L9 154.5L8.44953 153.729C7.15184 151.913 5.99847 149.997 5 148C3.33882 144.345 2.10245 140.512 1.31516 136.576L1 135L0.315732 130.552C0.105551 129.186 0 127.806 0 126.424V122.486C0 121.834 0.11722 121.187 0.346063 120.577Z" fill="url(#paint0_linear_2495_20360)"/>
<defs>
<linearGradient id="paint0_linear_2495_20360" x1="12.5" y1="138.5" x2="182" y2="-10.5" gradientUnits="userSpaceOnUse">
<stop stop-opacity="0.5"/>
<stop offset="0.774038" stop-color="#090D31" stop-opacity="0.24"/>
<stop offset="1" stop-color="#090D31"/>
</linearGradient>
</defs>
</svg>
