<svg width="193" height="249" viewBox="0 0 193 249" fill="none" xmlns="http://www.w3.org/2000/svg">
<path d="M187.783 218.889L183.5 218.5L37.5 0.5L0.5 92L154 241.5L153.238 244.547C153.083 245.166 153.128 245.819 153.365 246.412C153.759 247.398 154.639 248.107 155.687 248.281L158.268 248.711C159.408 248.901 160.576 248.832 161.685 248.508L168.603 246.491C170.863 245.832 173.059 244.97 175.165 243.917L175.385 243.808C177.789 242.605 180.073 241.175 182.204 239.535L183.605 238.458C184.866 237.488 186.038 236.408 187.108 235.231L188.496 233.704C189.821 232.247 190.863 230.557 191.569 228.72L192.517 226.257C192.834 225.432 192.943 224.541 192.833 223.664C192.623 221.987 191.636 220.507 190.169 219.668L190.061 219.606C189.362 219.207 188.585 218.962 187.783 218.889Z" fill="url(#paint0_linear_2495_20361)"/>
<linearGradient id="paint0_linear_2495_20361" x1="18" y1="80.5" x2="173.5" y2="232.5" gradientUnits="userSpaceOnUse">
<stop stop-color="#090D31"/>
<stop offset="0.287271" stop-color="#090D31" stop-opacity="0.45"/>
<stop offset="1" stop-opacity="0.5"/>
</linearGradient>
</svg>
