<svg width="196" height="605" viewBox="0 0 196 605" fill="none" xmlns="http://www.w3.org/2000/svg">
<circle cx="97.5" cy="134.5" r="27" stroke="#FE9E81" stroke-width="11"/>
<path d="M100.679 0.743164C138.095 45.1416 163.615 93.2739 160.191 153.399H150.116C150.12 147.22 150.191 141.09 150.131 134.977L150.096 132.287C149.802 113.844 144.664 96.5397 138.285 79.5459L137.665 77.9023C130.59 59.2856 120.532 42.4532 108.813 26.5625L107.675 25.0273H107.674C107.533 24.8387 107.403 24.6416 107.261 24.4287C107.191 24.3243 107.119 24.2164 107.043 24.1074L106.804 23.7803L106.801 23.7764L105.806 22.5215C104.863 21.346 104.071 20.4105 103.365 19.7285C102.432 18.8266 101.555 18.272 100.588 18.2881C99.6294 18.3041 98.7418 18.8796 97.7793 19.7891C97.0494 20.4788 96.2214 21.4159 95.2334 22.583L94.1895 23.8262C77.3992 43.9322 64.3404 66.1013 55.6348 90.9492L55.2236 92.1348C49.9753 107.428 47.5187 123.075 46.5996 139.048L46.5156 140.595C46.3012 144.784 46.47 149.014 46.4824 153.5H36.7822C35.3811 127.696 39.1763 102.99 48.9365 79.4229L49.4092 78.2949C61.6241 49.4435 78.3189 23.5258 100.679 0.743164Z" fill="#FE9E81" stroke="#FE9E81"/>
<path d="M41.5 152.5L45.5 219" stroke="#FE9E81" stroke-width="11"/>
<path d="M155 153L151 219" stroke="#FE9E81" stroke-width="11"/>
<path d="M47 381L47.8122 391.5M151.5 381L150.083 394.5M62 474.131C60.8025 473.759 59.5875 473.37 58.3533 472.966C55.7032 472.097 53.8608 469.701 53.6458 466.92L52.8011 456M62 474.131L68.285 502.513C68.9948 505.719 71.8366 508 75.1195 508H119.458C122.469 508 125.143 506.074 126.097 503.218L136 473.571M62 474.131C89.8975 482.808 108.238 482.751 136 473.571M136 473.571C136.612 473.369 137.228 473.162 137.848 472.951C140.394 472.086 142.178 469.8 142.459 467.126L143.417 458M47.8122 391.5L8.31213 429.288C6.84378 430.693 6.05831 432.666 6.15979 434.696L8.41841 479.868C8.45572 480.614 9.26846 481.058 9.91603 480.685L52.8011 456M47.8122 391.5L52.8011 456M150.083 394.5L187.659 430.742C189.143 432.174 189.921 434.188 189.784 436.246L186.612 483.815C186.562 484.573 185.717 485 185.077 484.591L143.417 458M150.083 394.5L143.417 458" stroke="url(#paint0_linear_2680_7890)" stroke-width="11"/>
<path d="M80 528L73.0326 549.289C71.7119 553.325 71.6743 557.694 73.1234 561.685C78.7029 577.053 84.5758 586.055 96.43 599.421C96.4677 599.464 96.5351 599.466 96.5761 599.427C110.374 586.152 117.153 577.181 123.405 562.15C125.177 557.889 125.177 553.117 123.67 548.754L116.5 528" stroke="#CB4BA1" stroke-width="11"/>
<defs>
<linearGradient id="paint0_linear_2680_7890" x1="98" y1="381" x2="98" y2="508" gradientUnits="userSpaceOnUse">
<stop stop-color="#E37292"/>
<stop offset="1" stop-color="#D3579C"/>
</linearGradient>
</defs>
</svg>
