<svg width="196" height="605" viewBox="0 0 196 605" fill="none" xmlns="http://www.w3.org/2000/svg">
<circle cx="97.5" cy="134.5" r="27" stroke="#3D3B7D" stroke-width="11"/>
<path d="M100.707 0C138.456 44.6804 164.27 93.185 160.664 153.899H149.616C149.616 146.634 149.716 139.46 149.596 132.296C149.293 113.346 143.855 95.5866 137.197 78.0797C129.915 58.918 119.461 41.6432 107.274 25.327C106.972 24.9233 106.72 24.4895 106.408 24.0858C100.788 16.9418 100.476 17.0831 94.5736 24.1464C77.5523 44.529 64.3784 67.0307 55.6966 92.2971C50.2981 108.028 47.8607 124.142 47.0147 140.62C46.7931 144.949 46.9845 149.298 46.9845 154H36.3084C34.8077 127.543 38.7458 102.226 48.9485 78.0999C61.2562 49.0294 78.1062 22.9254 100.707 0Z" fill="#3D3B7D"/>
<path d="M41.5 152.5L45.5 219" stroke="#3D3B7D" stroke-width="11"/>
<path d="M155 153L151 219" stroke="#3D3B7D" stroke-width="11"/>
<path d="M47 381L47.8122 391.5M151.5 381L150.083 394.5M62 474.131C60.8025 473.759 59.5875 473.37 58.3533 472.966C55.7032 472.097 53.8608 469.701 53.6458 466.92L52.8011 456M62 474.131L68.285 502.513C68.9948 505.719 71.8366 508 75.1195 508H119.458C122.469 508 125.143 506.074 126.097 503.218L136 473.571M62 474.131C89.8975 482.808 108.238 482.751 136 473.571M136 473.571C136.612 473.369 137.228 473.162 137.848 472.951C140.394 472.086 142.178 469.8 142.459 467.126L143.417 458M47.8122 391.5L8.31213 429.288C6.84378 430.693 6.05831 432.666 6.15979 434.696L8.41841 479.868C8.45572 480.614 9.26846 481.058 9.91603 480.685L52.8011 456M47.8122 391.5L52.8011 456M150.083 394.5L187.659 430.742C189.143 432.174 189.921 434.188 189.784 436.246L186.612 483.815C186.562 484.573 185.717 485 185.077 484.591L143.417 458M150.083 394.5L143.417 458" stroke="#3D3B7D" stroke-width="11"/>
<path d="M80 528L73.0326 549.289C71.7119 553.325 71.6743 557.694 73.1234 561.685C78.7029 577.053 84.5758 586.055 96.43 599.421C96.4677 599.464 96.5351 599.466 96.5761 599.427C110.374 586.152 117.153 577.181 123.405 562.15C125.177 557.889 125.177 553.117 123.67 548.754L116.5 528" stroke="#3D3B7D" stroke-width="11"/>
</svg>
